<mxfile host="app.diagrams.net" modified="2020-04-15T02:16:41.611Z" agent="5.0 (Macintosh; Intel Mac OS X 10_15_3) AppleWebKit/537.36 (KHTML, like Gecko) Chrome/80.0.3987.163 Safari/537.36" etag="uVpJngEMKnzZEaDofRsL" version="12.9.11" type="github">
  <diagram id="OBpz-HxGuRN2mtiWmTwj" name="Page-1">
    <mxGraphModel dx="1712" dy="1855" grid="1" gridSize="10" guides="1" tooltips="1" connect="1" arrows="1" fold="1" page="1" pageScale="1" pageWidth="827" pageHeight="1169" math="0" shadow="0">
      <root>
        <mxCell id="0" />
        <mxCell id="1" parent="0" />
        <mxCell id="ubIFbfM6RXI0TAhfLppu-1" value="DS" style="rounded=0;whiteSpace=wrap;html=1;" parent="1" vertex="1">
          <mxGeometry x="120" y="320" width="120" height="60" as="geometry" />
        </mxCell>
        <mxCell id="ubIFbfM6RXI0TAhfLppu-2" value="TM" style="rounded=0;whiteSpace=wrap;html=1;" parent="1" vertex="1">
          <mxGeometry x="360" y="240" width="120" height="60" as="geometry" />
        </mxCell>
        <mxCell id="ubIFbfM6RXI0TAhfLppu-3" value="ES" style="rounded=0;whiteSpace=wrap;html=1;" parent="1" vertex="1">
          <mxGeometry x="280" y="400" width="60" height="60" as="geometry" />
        </mxCell>
        <mxCell id="ubIFbfM6RXI0TAhfLppu-4" value="ES" style="rounded=0;whiteSpace=wrap;html=1;" parent="1" vertex="1">
          <mxGeometry x="500" y="400" width="60" height="60" as="geometry" />
        </mxCell>
        <mxCell id="ubIFbfM6RXI0TAhfLppu-5" value="ES" style="rounded=0;whiteSpace=wrap;html=1;" parent="1" vertex="1">
          <mxGeometry x="354" y="400" width="60" height="60" as="geometry" />
        </mxCell>
        <mxCell id="ubIFbfM6RXI0TAhfLppu-6" value="ES" style="rounded=0;whiteSpace=wrap;html=1;" parent="1" vertex="1">
          <mxGeometry x="430" y="400" width="60" height="60" as="geometry" />
        </mxCell>
        <mxCell id="ubIFbfM6RXI0TAhfLppu-7" value="DS" style="rounded=0;whiteSpace=wrap;html=1;" parent="1" vertex="1">
          <mxGeometry x="600" y="320" width="120" height="60" as="geometry" />
        </mxCell>
        <mxCell id="ubIFbfM6RXI0TAhfLppu-9" value="Datamarket" style="rounded=0;whiteSpace=wrap;html=1;" parent="1" vertex="1">
          <mxGeometry x="360" y="100" width="120" height="60" as="geometry" />
        </mxCell>
        <mxCell id="ubIFbfM6RXI0TAhfLppu-10" value="" style="endArrow=classic;html=1;exitX=0.5;exitY=0;exitDx=0;exitDy=0;entryX=0;entryY=0.5;entryDx=0;entryDy=0;" parent="1" source="ubIFbfM6RXI0TAhfLppu-1" target="ubIFbfM6RXI0TAhfLppu-9" edge="1">
          <mxGeometry width="50" height="50" relative="1" as="geometry">
            <mxPoint x="360" y="310" as="sourcePoint" />
            <mxPoint x="410" y="260" as="targetPoint" />
          </mxGeometry>
        </mxCell>
        <mxCell id="ubIFbfM6RXI0TAhfLppu-15" value="" style="endArrow=classic;html=1;entryX=0.5;entryY=0;entryDx=0;entryDy=0;exitX=0.25;exitY=1;exitDx=0;exitDy=0;" parent="1" source="ubIFbfM6RXI0TAhfLppu-2" target="ubIFbfM6RXI0TAhfLppu-3" edge="1">
          <mxGeometry width="50" height="50" relative="1" as="geometry">
            <mxPoint x="360" y="300" as="sourcePoint" />
            <mxPoint x="410" y="250" as="targetPoint" />
          </mxGeometry>
        </mxCell>
        <mxCell id="ubIFbfM6RXI0TAhfLppu-34" value="3&#39;.收到任务配置" style="edgeLabel;html=1;align=center;verticalAlign=middle;resizable=0;points=[];" parent="ubIFbfM6RXI0TAhfLppu-15" vertex="1" connectable="0">
          <mxGeometry x="-0.063" y="1" relative="1" as="geometry">
            <mxPoint as="offset" />
          </mxGeometry>
        </mxCell>
        <mxCell id="ubIFbfM6RXI0TAhfLppu-16" value="" style="endArrow=classic;html=1;entryX=0.5;entryY=0;entryDx=0;entryDy=0;exitX=0.75;exitY=1;exitDx=0;exitDy=0;" parent="1" source="ubIFbfM6RXI0TAhfLppu-2" target="ubIFbfM6RXI0TAhfLppu-4" edge="1">
          <mxGeometry width="50" height="50" relative="1" as="geometry">
            <mxPoint x="360" y="300" as="sourcePoint" />
            <mxPoint x="410" y="250" as="targetPoint" />
          </mxGeometry>
        </mxCell>
        <mxCell id="ubIFbfM6RXI0TAhfLppu-17" value="" style="endArrow=classic;html=1;entryX=0.5;entryY=0;entryDx=0;entryDy=0;exitX=0.5;exitY=1;exitDx=0;exitDy=0;" parent="1" source="ubIFbfM6RXI0TAhfLppu-2" target="ubIFbfM6RXI0TAhfLppu-5" edge="1">
          <mxGeometry width="50" height="50" relative="1" as="geometry">
            <mxPoint x="360" y="300" as="sourcePoint" />
            <mxPoint x="410" y="250" as="targetPoint" />
          </mxGeometry>
        </mxCell>
        <mxCell id="ubIFbfM6RXI0TAhfLppu-18" value="" style="endArrow=classic;html=1;entryX=0.5;entryY=0;entryDx=0;entryDy=0;exitX=0.5;exitY=1;exitDx=0;exitDy=0;" parent="1" source="ubIFbfM6RXI0TAhfLppu-2" target="ubIFbfM6RXI0TAhfLppu-6" edge="1">
          <mxGeometry width="50" height="50" relative="1" as="geometry">
            <mxPoint x="360" y="300" as="sourcePoint" />
            <mxPoint x="410" y="250" as="targetPoint" />
          </mxGeometry>
        </mxCell>
        <mxCell id="ubIFbfM6RXI0TAhfLppu-20" value="" style="endArrow=classic;html=1;entryX=0.5;entryY=0;entryDx=0;entryDy=0;exitX=0.5;exitY=1;exitDx=0;exitDy=0;" parent="1" source="ubIFbfM6RXI0TAhfLppu-9" target="ubIFbfM6RXI0TAhfLppu-2" edge="1">
          <mxGeometry width="50" height="50" relative="1" as="geometry">
            <mxPoint x="360" y="300" as="sourcePoint" />
            <mxPoint x="410" y="250" as="targetPoint" />
          </mxGeometry>
        </mxCell>
        <mxCell id="ubIFbfM6RXI0TAhfLppu-32" value="2.提交任务给TM" style="edgeLabel;html=1;align=center;verticalAlign=middle;resizable=0;points=[];" parent="ubIFbfM6RXI0TAhfLppu-20" vertex="1" connectable="0">
          <mxGeometry x="-0.125" y="-1" relative="1" as="geometry">
            <mxPoint x="-49" y="5" as="offset" />
          </mxGeometry>
        </mxCell>
        <mxCell id="ubIFbfM6RXI0TAhfLppu-21" value="" style="endArrow=classic;html=1;exitX=1;exitY=0.5;exitDx=0;exitDy=0;entryX=0;entryY=0.5;entryDx=0;entryDy=0;" parent="1" source="ubIFbfM6RXI0TAhfLppu-1" target="ubIFbfM6RXI0TAhfLppu-2" edge="1">
          <mxGeometry width="50" height="50" relative="1" as="geometry">
            <mxPoint x="360" y="300" as="sourcePoint" />
            <mxPoint x="410" y="250" as="targetPoint" />
          </mxGeometry>
        </mxCell>
        <mxCell id="ubIFbfM6RXI0TAhfLppu-33" value="3.收到任务配置" style="edgeLabel;html=1;align=center;verticalAlign=middle;resizable=0;points=[];" parent="ubIFbfM6RXI0TAhfLppu-21" vertex="1" connectable="0">
          <mxGeometry x="-0.0321" relative="1" as="geometry">
            <mxPoint as="offset" />
          </mxGeometry>
        </mxCell>
        <mxCell id="ubIFbfM6RXI0TAhfLppu-22" value="" style="endArrow=classic;html=1;exitX=0;exitY=0.5;exitDx=0;exitDy=0;entryX=1;entryY=0.5;entryDx=0;entryDy=0;" parent="1" source="ubIFbfM6RXI0TAhfLppu-7" target="ubIFbfM6RXI0TAhfLppu-2" edge="1">
          <mxGeometry width="50" height="50" relative="1" as="geometry">
            <mxPoint x="360" y="300" as="sourcePoint" />
            <mxPoint x="410" y="250" as="targetPoint" />
          </mxGeometry>
        </mxCell>
        <mxCell id="ubIFbfM6RXI0TAhfLppu-23" value="Buyer" style="shape=umlActor;verticalLabelPosition=bottom;labelBackgroundColor=#ffffff;verticalAlign=top;html=1;outlineConnect=0;" parent="1" vertex="1">
          <mxGeometry x="405" y="-60" width="30" height="60" as="geometry" />
        </mxCell>
        <mxCell id="ubIFbfM6RXI0TAhfLppu-25" value="" style="endArrow=classic;html=1;entryX=0.5;entryY=0;entryDx=0;entryDy=0;" parent="1" source="ubIFbfM6RXI0TAhfLppu-23" target="ubIFbfM6RXI0TAhfLppu-9" edge="1">
          <mxGeometry width="50" height="50" relative="1" as="geometry">
            <mxPoint x="360" y="150" as="sourcePoint" />
            <mxPoint x="410" y="100" as="targetPoint" />
          </mxGeometry>
        </mxCell>
        <mxCell id="ubIFbfM6RXI0TAhfLppu-28" value="1.选择数据和kernel&lt;br&gt;5.查看计算结果和费用" style="edgeLabel;html=1;align=center;verticalAlign=middle;resizable=0;points=[];" parent="ubIFbfM6RXI0TAhfLppu-25" vertex="1" connectable="0">
          <mxGeometry x="-0.1042" relative="1" as="geometry">
            <mxPoint x="-50" y="5" as="offset" />
          </mxGeometry>
        </mxCell>
        <mxCell id="ubIFbfM6RXI0TAhfLppu-36" value="4.获取任务执行状态，进行计费" style="edgeLabel;html=1;align=center;verticalAlign=middle;resizable=0;points=[];" parent="ubIFbfM6RXI0TAhfLppu-25" vertex="1" connectable="0">
          <mxGeometry x="-0.2333" y="3" relative="1" as="geometry">
            <mxPoint x="127" y="161.67000000000002" as="offset" />
          </mxGeometry>
        </mxCell>
        <mxCell id="ubIFbfM6RXI0TAhfLppu-35" value="4‘.获取计算结果" style="text;html=1;align=center;verticalAlign=middle;resizable=0;points=[];autosize=1;" parent="1" vertex="1">
          <mxGeometry x="500" y="300" width="100" height="20" as="geometry" />
        </mxCell>
        <mxCell id="ubIFbfM6RXI0TAhfLppu-37" value="" style="endArrow=classic;html=1;entryX=0.75;entryY=1;entryDx=0;entryDy=0;exitX=0.75;exitY=0;exitDx=0;exitDy=0;" parent="1" source="ubIFbfM6RXI0TAhfLppu-2" target="ubIFbfM6RXI0TAhfLppu-9" edge="1">
          <mxGeometry width="50" height="50" relative="1" as="geometry">
            <mxPoint x="380" y="250" as="sourcePoint" />
            <mxPoint x="430" y="200" as="targetPoint" />
          </mxGeometry>
        </mxCell>
        <mxCell id="ubIFbfM6RXI0TAhfLppu-38" value="Buyer" style="shape=umlActor;verticalLabelPosition=bottom;labelBackgroundColor=#ffffff;verticalAlign=top;html=1;outlineConnect=0;" parent="1" vertex="1">
          <mxGeometry x="827" y="320" width="30" height="60" as="geometry" />
        </mxCell>
        <mxCell id="ubIFbfM6RXI0TAhfLppu-39" value="5’.查看结果" style="endArrow=classic;html=1;exitX=0.5;exitY=0.5;exitDx=0;exitDy=0;exitPerimeter=0;entryX=1;entryY=0.5;entryDx=0;entryDy=0;" parent="1" source="ubIFbfM6RXI0TAhfLppu-38" target="ubIFbfM6RXI0TAhfLppu-7" edge="1">
          <mxGeometry width="50" height="50" relative="1" as="geometry">
            <mxPoint x="380" y="280" as="sourcePoint" />
            <mxPoint x="430" y="230" as="targetPoint" />
          </mxGeometry>
        </mxCell>
        <mxCell id="FTIpeuj2QPUnfpNJJs1q-1" value="" style="endArrow=classic;html=1;exitX=0.5;exitY=0;exitDx=0;exitDy=0;entryX=1;entryY=0.5;entryDx=0;entryDy=0;" edge="1" parent="1" source="ubIFbfM6RXI0TAhfLppu-7" target="ubIFbfM6RXI0TAhfLppu-9">
          <mxGeometry width="50" height="50" relative="1" as="geometry">
            <mxPoint x="430" y="260" as="sourcePoint" />
            <mxPoint x="480" y="210" as="targetPoint" />
          </mxGeometry>
        </mxCell>
        <mxCell id="FTIpeuj2QPUnfpNJJs1q-2" value="Seller" style="shape=umlActor;verticalLabelPosition=bottom;labelBackgroundColor=#ffffff;verticalAlign=top;html=1;outlineConnect=0;" vertex="1" parent="1">
          <mxGeometry x="-34" y="320" width="30" height="60" as="geometry" />
        </mxCell>
        <mxCell id="FTIpeuj2QPUnfpNJJs1q-4" value="" style="endArrow=classic;html=1;exitX=0.5;exitY=0.5;exitDx=0;exitDy=0;exitPerimeter=0;entryX=0;entryY=0.5;entryDx=0;entryDy=0;" edge="1" parent="1" source="FTIpeuj2QPUnfpNJJs1q-2" target="ubIFbfM6RXI0TAhfLppu-1">
          <mxGeometry width="50" height="50" relative="1" as="geometry">
            <mxPoint x="310" y="230" as="sourcePoint" />
            <mxPoint x="360" y="180" as="targetPoint" />
          </mxGeometry>
        </mxCell>
        <mxCell id="FTIpeuj2QPUnfpNJJs1q-7" value="5&#39;&#39;.查看运行记录" style="edgeLabel;html=1;align=center;verticalAlign=middle;resizable=0;points=[];" vertex="1" connectable="0" parent="FTIpeuj2QPUnfpNJJs1q-4">
          <mxGeometry x="-0.1467" relative="1" as="geometry">
            <mxPoint x="11" as="offset" />
          </mxGeometry>
        </mxCell>
      </root>
    </mxGraphModel>
  </diagram>
</mxfile>
